<svg width="189" height="35" viewBox="0 0 189 35" fill="none" xmlns="http://www.w3.org/2000/svg">
<path d="M24.9234 32.608C26.0754 32.608 26.9074 32.544 27.4194 32.416C27.9314 32.256 28.2514 32 28.3794 31.648C28.5394 31.296 28.6194 30.72 28.6194 29.92V6.448C28.6194 5.616 28.5394 5.024 28.3794 4.672C28.2194 4.32 27.8834 4.08 27.3714 3.952C26.8914 3.792 26.0754 3.712 24.9234 3.712V2.32H37.8354C41.0034 2.32 43.4834 2.976 45.2754 4.288C47.0674 5.6 47.9634 7.552 47.9634 10.144C47.9634 12.32 47.3394 14.08 46.0914 15.424C44.8754 16.768 43.2274 17.68 41.1474 18.16V18.256C42.7794 18.736 43.9794 19.52 44.7474 20.608C45.5474 21.696 46.1234 23.36 46.4754 25.6L46.7634 27.376C47.0834 29.168 47.5314 30.496 48.1074 31.36C48.6834 32.192 49.5794 32.608 50.7954 32.608V34H44.5554C43.7234 33.232 43.0834 31.76 42.6354 29.584L41.4834 23.68C41.1634 22.08 40.5714 20.928 39.7074 20.224C38.8754 19.488 37.6274 19.12 35.9634 19.12H33.0354V29.92C33.0354 30.72 33.1154 31.312 33.2754 31.696C33.4354 32.048 33.7874 32.288 34.3314 32.416C34.8754 32.544 35.7554 32.608 36.9714 32.608V34H24.9234V32.608ZM36.0594 17.392C38.4914 17.392 40.2834 16.864 41.4354 15.808C42.5874 14.72 43.1634 13.024 43.1634 10.72C43.1634 8.416 42.5714 6.72 41.3874 5.632C40.2034 4.544 38.3954 4 35.9634 4C34.7474 4 33.9474 4.144 33.5634 4.432C33.2114 4.688 33.0354 5.136 33.0354 5.776V17.392H36.0594ZM74.3859 30.016C74.3859 30.816 74.4499 31.392 74.5779 31.744C74.7059 32.064 74.9939 32.288 75.4419 32.416C75.8899 32.544 76.6259 32.608 77.6499 32.608V34H70.4019V30.64H70.2579V30.544C68.1779 33.232 65.5859 34.576 62.4819 34.576C58.2259 34.576 56.0979 32.288 56.0979 27.712V15.616C56.0979 14.784 56.0019 14.224 55.8099 13.936C55.6179 13.648 55.2339 13.504 54.6579 13.504H53.0259V12.112L58.8339 11.248H60.1779V26.944C60.1779 28.544 60.5299 29.824 61.2339 30.784C61.9699 31.744 63.0899 32.224 64.5939 32.224C66.6739 32.224 68.5619 31.008 70.2579 28.576L70.3059 15.616C70.3059 14.784 70.2099 14.224 70.0179 13.936C69.8259 13.648 69.4419 13.504 68.8659 13.504H67.2339V12.112L73.0419 11.248H74.3859V30.016ZM104.962 32.608V34H98.2423L97.9063 31.696C96.8823 32.528 95.7943 33.216 94.6423 33.76C93.4903 34.304 92.1303 34.576 90.5623 34.576C87.7463 34.576 85.5863 33.6 84.0823 31.648C82.6103 29.696 81.8743 26.864 81.8743 23.152C81.8743 19.024 82.7703 15.968 84.5623 13.984C86.3543 12 88.8503 11.008 92.0503 11.008C94.1303 11.008 95.9863 11.632 97.6183 12.88V12.688H97.7623V5.392C97.7623 4.528 97.6663 3.952 97.4743 3.664C97.2823 3.376 96.8983 3.232 96.3223 3.232H94.5943V1.84L100.498 0.783998H101.794V30.352C101.794 31.248 101.922 31.856 102.178 32.176C102.466 32.464 102.978 32.608 103.714 32.608H104.962ZM86.3863 22.576C86.3863 29.232 88.3383 32.56 92.2423 32.56C93.2983 32.56 94.2423 32.32 95.0743 31.84C95.9063 31.36 96.8023 30.688 97.7623 29.824V14.944C96.1943 13.312 94.4663 12.496 92.5783 12.496C90.5303 12.496 88.9783 13.296 87.9223 14.896C86.8983 16.496 86.3863 19.056 86.3863 22.576ZM127.525 22.96H112.261C112.325 25.936 112.853 28.288 113.845 30.016C114.869 31.744 116.661 32.608 119.221 32.608C121.077 32.608 122.549 32.128 123.637 31.168C124.725 30.208 125.525 28.976 126.037 27.472L127.381 28.048C126.709 30 125.669 31.568 124.261 32.752C122.853 33.936 120.757 34.528 117.973 34.528C114.549 34.528 111.989 33.536 110.293 31.552C108.629 29.568 107.797 26.72 107.797 23.008C107.797 19.2 108.661 16.256 110.389 14.176C112.117 12.064 114.661 11.008 118.021 11.008C124.357 11.008 127.525 14.848 127.525 22.528V22.96ZM123.061 21.424C123.061 18.384 122.693 16.144 121.957 14.704C121.221 13.232 119.925 12.496 118.069 12.496C116.181 12.496 114.773 13.248 113.845 14.752C112.917 16.224 112.389 18.448 112.261 21.424H123.061ZM152.527 30.016C152.527 30.816 152.591 31.392 152.719 31.744C152.847 32.064 153.135 32.288 153.583 32.416C154.031 32.544 154.767 32.608 155.791 32.608V34H148.543V30.64H148.399V30.544C146.319 33.232 143.727 34.576 140.623 34.576C136.367 34.576 134.239 32.288 134.239 27.712V15.616C134.239 14.784 134.143 14.224 133.951 13.936C133.759 13.648 133.375 13.504 132.799 13.504H131.167V12.112L136.975 11.248H138.319V26.944C138.319 28.544 138.671 29.824 139.375 30.784C140.111 31.744 141.231 32.224 142.735 32.224C144.815 32.224 146.703 31.008 148.399 28.576L148.447 15.616C148.447 14.784 148.351 14.224 148.159 13.936C147.967 13.648 147.583 13.504 147.007 13.504H145.375V12.112L151.183 11.248H152.527V30.016ZM177.055 30.592C177.567 31.36 178.063 31.888 178.543 32.176C179.055 32.464 179.871 32.608 180.991 32.608V34H170.623V32.608H172.159C172.703 32.608 172.975 32.4 172.975 31.984C172.975 31.696 172.863 31.376 172.639 31.024L168.415 24.64L164.143 31.072C163.983 31.328 163.903 31.584 163.903 31.84C163.903 32.064 163.983 32.256 164.143 32.416C164.303 32.544 164.527 32.608 164.815 32.608H166.207V34H158.191V32.608C159.215 32.608 160.047 32.464 160.687 32.176C161.327 31.888 161.935 31.344 162.511 30.544L167.647 23.488L161.743 14.56C161.263 13.888 160.815 13.456 160.399 13.264C159.983 13.04 159.311 12.928 158.383 12.928V11.536H167.599V12.928H166.543C166.031 12.928 165.775 13.136 165.775 13.552C165.775 13.744 165.855 13.968 166.015 14.224L169.951 20.08L173.983 14.128C174.175 13.872 174.271 13.648 174.271 13.456C174.271 13.104 174.031 12.928 173.551 12.928H172.063V11.536H179.599V12.928C178.511 12.928 177.711 13.04 177.199 13.264C176.687 13.488 176.175 13.936 175.663 14.608L170.719 21.184L177.055 30.592Z" fill="white"/>
<path d="M6.95859 22.623C7.28793 22.623 7.51759 22.6057 7.64759 22.571C7.78626 22.5277 7.87293 22.4583 7.90759 22.363C7.94226 22.259 7.95959 22.0857 7.95959 21.843V15.59C7.95959 15.3387 7.93793 15.1653 7.89459 15.07C7.85993 14.966 7.77326 14.8967 7.63459 14.862C7.50459 14.8187 7.27926 14.797 6.95859 14.797V14.42H10.1566V14.797C9.82726 14.797 9.59759 14.8187 9.46759 14.862C9.33759 14.8967 9.25093 14.966 9.20759 15.07C9.17293 15.1653 9.15559 15.3387 9.15559 15.59V21.843C9.15559 22.0857 9.17293 22.259 9.20759 22.363C9.25093 22.4583 9.33759 22.5277 9.46759 22.571C9.60626 22.6057 9.83593 22.623 10.1566 22.623V23H6.95859V22.623ZM16.9681 21.921C16.9681 22.1377 16.9854 22.2937 17.0201 22.389C17.0548 22.4757 17.1328 22.5363 17.2541 22.571C17.3754 22.6057 17.5791 22.623 17.8651 22.623V23H15.0181V22.623C15.2954 22.623 15.4904 22.61 15.6031 22.584C15.7158 22.5493 15.7894 22.4887 15.8241 22.402C15.8588 22.3153 15.8761 22.1637 15.8761 21.947V18.788C15.8761 18.372 15.7764 18.0383 15.5771 17.787C15.3864 17.527 15.0831 17.397 14.6671 17.397C14.3291 17.397 14.0431 17.4793 13.8091 17.644C13.5751 17.8 13.3498 18.0253 13.1331 18.32V21.947C13.1331 22.1637 13.1504 22.3197 13.1851 22.415C13.2198 22.5017 13.2934 22.558 13.4061 22.584C13.5188 22.61 13.7094 22.623 13.9781 22.623V23H11.1311V22.623C11.4171 22.623 11.6208 22.6057 11.7421 22.571C11.8634 22.5363 11.9371 22.4757 11.9631 22.389C11.9978 22.3023 12.0151 22.1463 12.0151 21.921V18.047C12.0151 17.8217 11.9891 17.6743 11.9371 17.605C11.8851 17.527 11.7854 17.488 11.6381 17.488H11.1961V17.098L12.7301 16.838H13.0941V17.8H13.1071C13.4018 17.4533 13.7181 17.1977 14.0561 17.033C14.3941 16.8597 14.7798 16.773 15.2131 16.773C16.3831 16.773 16.9681 17.397 16.9681 18.645V21.921ZM19.112 17.826C19.0253 17.6093 18.9256 17.4663 18.813 17.397C18.709 17.3277 18.5183 17.293 18.241 17.293V16.916H20.945V17.293H20.425C20.2603 17.293 20.178 17.3667 20.178 17.514C20.178 17.566 20.191 17.6267 20.217 17.696L21.699 21.765H21.738L23.207 17.683C23.2243 17.6137 23.233 17.5617 23.233 17.527C23.233 17.371 23.1593 17.293 23.012 17.293H22.44V16.916H24.624V17.293C24.3466 17.293 24.1516 17.332 24.039 17.41C23.9263 17.4793 23.8266 17.618 23.74 17.826L21.686 23H21.062L19.112 17.826Z" fill="#E2163B"/>
</svg>
